<mxfile host="app.diagrams.net" agent="Mozilla/5.0 (Windows NT 10.0; Win64; x64) AppleWebKit/537.36 (KHTML, like Gecko) Chrome/138.0.0.0 Safari/537.36" version="27.0.9">
  <diagram name="Page-1" id="-AmisZ6moHVAjojxsQdF">
    <mxGraphModel dx="1800" dy="890" grid="1" gridSize="10" guides="1" tooltips="1" connect="1" arrows="1" fold="1" page="1" pageScale="1" pageWidth="850" pageHeight="1100" math="0" shadow="0">
      <root>
        <mxCell id="0" />
        <mxCell id="1" parent="0" />
        <mxCell id="3kxXtxVJNzXdA0bIITQs-3" value="" style="edgeStyle=orthogonalEdgeStyle;rounded=0;orthogonalLoop=1;jettySize=auto;html=1;" edge="1" parent="1" source="3kxXtxVJNzXdA0bIITQs-1" target="3kxXtxVJNzXdA0bIITQs-2">
          <mxGeometry relative="1" as="geometry" />
        </mxCell>
        <mxCell id="3kxXtxVJNzXdA0bIITQs-1" value="START" style="ellipse;whiteSpace=wrap;html=1;" vertex="1" parent="1">
          <mxGeometry x="570" y="70" width="120" height="80" as="geometry" />
        </mxCell>
        <mxCell id="3kxXtxVJNzXdA0bIITQs-5" value="" style="edgeStyle=orthogonalEdgeStyle;rounded=0;orthogonalLoop=1;jettySize=auto;html=1;" edge="1" parent="1" source="3kxXtxVJNzXdA0bIITQs-2" target="3kxXtxVJNzXdA0bIITQs-4">
          <mxGeometry relative="1" as="geometry" />
        </mxCell>
        <mxCell id="3kxXtxVJNzXdA0bIITQs-7" value="" style="edgeStyle=orthogonalEdgeStyle;rounded=0;orthogonalLoop=1;jettySize=auto;html=1;" edge="1" parent="1" source="3kxXtxVJNzXdA0bIITQs-2" target="3kxXtxVJNzXdA0bIITQs-6">
          <mxGeometry relative="1" as="geometry" />
        </mxCell>
        <mxCell id="3kxXtxVJNzXdA0bIITQs-2" value="create lambda function" style="whiteSpace=wrap;html=1;" vertex="1" parent="1">
          <mxGeometry x="570" y="240" width="120" height="60" as="geometry" />
        </mxCell>
        <mxCell id="3kxXtxVJNzXdA0bIITQs-4" value="check boto3 version" style="rounded=1;whiteSpace=wrap;html=1;" vertex="1" parent="1">
          <mxGeometry x="720" y="200" width="120" height="60" as="geometry" />
        </mxCell>
        <mxCell id="3kxXtxVJNzXdA0bIITQs-6" value="1. Create IAM Role&amp;nbsp;&lt;br&gt;2. Increase timeout limit" style="whiteSpace=wrap;html=1;" vertex="1" parent="1">
          <mxGeometry x="555" y="380" width="150" height="60" as="geometry" />
        </mxCell>
        <mxCell id="3kxXtxVJNzXdA0bIITQs-9" style="edgeStyle=orthogonalEdgeStyle;rounded=0;orthogonalLoop=1;jettySize=auto;html=1;entryX=0;entryY=0.5;entryDx=0;entryDy=0;exitX=1.003;exitY=0.252;exitDx=0;exitDy=0;exitPerimeter=0;" edge="1" parent="1" source="3kxXtxVJNzXdA0bIITQs-8" target="3kxXtxVJNzXdA0bIITQs-2">
          <mxGeometry relative="1" as="geometry" />
        </mxCell>
        <mxCell id="3kxXtxVJNzXdA0bIITQs-8" value="&lt;div style=&quot;color: rgb(59, 59, 59); background-color: rgb(255, 255, 255); font-family: Consolas, &amp;quot;Courier New&amp;quot;, monospace; line-height: 19px; white-space: pre;&quot;&gt;&lt;span style=&quot;color: rgb(0, 128, 0);&quot;&gt;&lt;font style=&quot;font-size: 10px;&quot;&gt;#1 Im&lt;/font&gt;&lt;font style=&quot;font-size: 12px;&quot;&gt;port bo&lt;/font&gt;&lt;font style=&quot;font-size: 10px;&quot;&gt;to3 and create client connection with bedrock&lt;/font&gt;&lt;/span&gt;&lt;/div&gt;&lt;div style=&quot;color: rgb(59, 59, 59); background-color: rgb(255, 255, 255); font-family: Consolas, &amp;quot;Courier New&amp;quot;, monospace; line-height: 19px; white-space: pre;&quot;&gt;&lt;div style=&quot;line-height: 19px;&quot;&gt;&lt;span style=&quot;color: rgb(0, 128, 0);&quot;&gt;&lt;font style=&quot;font-size: 11px;&quot;&gt;#2&lt;/font&gt;&lt;font style=&quot;font-size: 12px;&quot;&gt; a. S&lt;/font&gt;&lt;font style=&quot;font-size: 11px;&quot;&gt;tore the input in a variable, b. print the event&lt;/font&gt;&lt;/span&gt;&lt;/div&gt;&lt;div style=&quot;line-height: 19px;&quot;&gt;&lt;div style=&quot;line-height: 19px;&quot;&gt;&lt;span style=&quot;color: rgb(0, 128, 0);&quot;&gt;&lt;font style=&quot;font-size: 11px;&quot;&gt;#3. Create &amp;nbsp;Request Syntax - Get details from console &amp;amp; body should be json &lt;/font&gt;&lt;/span&gt;&lt;/div&gt;&lt;div style=&quot;line-height: 19px;&quot;&gt;&lt;span style=&quot;color: rgb(0, 128, 0);&quot;&gt;&lt;font style=&quot;font-size: 11px;&quot;&gt;object - use &amp;nbsp; json.dumps for body&lt;/font&gt;&lt;/span&gt;&lt;/div&gt;&lt;div style=&quot;line-height: 19px;&quot;&gt;&lt;div style=&quot;line-height: 19px;&quot;&gt;&lt;span style=&quot;color: rgb(0, 128, 0);&quot;&gt;&lt;font style=&quot;font-size: 12px;&quot;&gt;#4. Convert Streaming Body to Byte(.read method) and then Byte to&lt;/font&gt;&lt;/span&gt;&lt;/div&gt;&lt;div style=&quot;line-height: 19px;&quot;&gt;&lt;span style=&quot;color: rgb(0, 128, 0);&quot;&gt;&lt;font style=&quot;font-size: 12px;&quot;&gt;String using json.loads&lt;/font&gt;&lt;/span&gt;&lt;/div&gt;&lt;div style=&quot;line-height: 19px;&quot;&gt;&lt;div style=&quot;line-height: 19px;&quot;&gt;&lt;span style=&quot;color: rgb(0, 128, 0);&quot;&gt;&lt;font style=&quot;font-size: 12px;&quot;&gt;#5 a. Print the event and type , b. Store the input in a variable&lt;/font&gt;&lt;/span&gt;&lt;/div&gt;&lt;div style=&quot;line-height: 19px;&quot;&gt;&lt;span style=&quot;color: rgb(0, 128, 0);&quot;&gt;&lt;font style=&quot;font-size: 12px;&quot;&gt;#6. Update the &#39;return&#39; by changing the &#39;body&#39;&lt;/font&gt;&lt;/span&gt;&lt;/div&gt;&lt;/div&gt;&lt;/div&gt;&lt;/div&gt;&lt;/div&gt;" style="shape=note;whiteSpace=wrap;html=1;backgroundOutline=1;darkOpacity=0.05;" vertex="1" parent="1">
          <mxGeometry x="20" y="230" width="490" height="160" as="geometry" />
        </mxCell>
        <mxCell id="3kxXtxVJNzXdA0bIITQs-11" style="edgeStyle=orthogonalEdgeStyle;rounded=0;orthogonalLoop=1;jettySize=auto;html=1;" edge="1" parent="1" source="3kxXtxVJNzXdA0bIITQs-10" target="3kxXtxVJNzXdA0bIITQs-8">
          <mxGeometry relative="1" as="geometry" />
        </mxCell>
        <mxCell id="3kxXtxVJNzXdA0bIITQs-14" value="" style="edgeStyle=orthogonalEdgeStyle;rounded=0;orthogonalLoop=1;jettySize=auto;html=1;" edge="1" parent="1" source="3kxXtxVJNzXdA0bIITQs-10" target="3kxXtxVJNzXdA0bIITQs-13">
          <mxGeometry relative="1" as="geometry" />
        </mxCell>
        <mxCell id="3kxXtxVJNzXdA0bIITQs-10" value="Modification&lt;div&gt;Lambda Function&lt;/div&gt;" style="ellipse;whiteSpace=wrap;html=1;aspect=fixed;" vertex="1" parent="1">
          <mxGeometry x="600" y="500" width="80" height="80" as="geometry" />
        </mxCell>
        <mxCell id="3kxXtxVJNzXdA0bIITQs-12" style="edgeStyle=orthogonalEdgeStyle;rounded=0;orthogonalLoop=1;jettySize=auto;html=1;entryX=0.342;entryY=0.04;entryDx=0;entryDy=0;entryPerimeter=0;" edge="1" parent="1" source="3kxXtxVJNzXdA0bIITQs-6" target="3kxXtxVJNzXdA0bIITQs-10">
          <mxGeometry relative="1" as="geometry" />
        </mxCell>
        <mxCell id="3kxXtxVJNzXdA0bIITQs-16" value="" style="edgeStyle=orthogonalEdgeStyle;rounded=0;orthogonalLoop=1;jettySize=auto;html=1;" edge="1" parent="1" source="3kxXtxVJNzXdA0bIITQs-13" target="3kxXtxVJNzXdA0bIITQs-15">
          <mxGeometry relative="1" as="geometry" />
        </mxCell>
        <mxCell id="3kxXtxVJNzXdA0bIITQs-13" value="Create API Gateway" style="whiteSpace=wrap;html=1;" vertex="1" parent="1">
          <mxGeometry x="580" y="620" width="120" height="60" as="geometry" />
        </mxCell>
        <mxCell id="3kxXtxVJNzXdA0bIITQs-18" value="" style="edgeStyle=orthogonalEdgeStyle;rounded=0;orthogonalLoop=1;jettySize=auto;html=1;" edge="1" parent="1" source="3kxXtxVJNzXdA0bIITQs-15" target="3kxXtxVJNzXdA0bIITQs-17">
          <mxGeometry relative="1" as="geometry" />
        </mxCell>
        <mxCell id="3kxXtxVJNzXdA0bIITQs-15" value="Test Endpoint using Postman" style="whiteSpace=wrap;html=1;" vertex="1" parent="1">
          <mxGeometry x="580" y="760" width="120" height="60" as="geometry" />
        </mxCell>
        <mxCell id="3kxXtxVJNzXdA0bIITQs-17" value="END" style="ellipse;whiteSpace=wrap;html=1;" vertex="1" parent="1">
          <mxGeometry x="600" y="890" width="80" height="80" as="geometry" />
        </mxCell>
      </root>
    </mxGraphModel>
  </diagram>
</mxfile>
